<?xml version="1.0" standalone="no"?>
<!DOCTYPE svg PUBLIC "-//W3C//DTD SVG 20010904//EN"
 "http://www.w3.org/TR/2001/REC-SVG-20010904/DTD/svg10.dtd">
<svg version="1.0" xmlns="http://www.w3.org/2000/svg"
 width="16.000000pt" height="16.000000pt" viewBox="0 0 16.000000 16.000000"
 preserveAspectRatio="xMidYMid meet">
<metadata>
Created by potrace 1.11, written by Peter Selinger 2001-2013
</metadata>
<g transform="translate(0.000000,16.000000) scale(0.004533,-0.004533)"
fill="#000000" stroke="none">
<path d="M2085 3131 c-11 -5 -29 -18 -39 -30 -18 -20 -20 -38 -20 -202 l-1
-181 33 -29 c60 -54 150 -30 170 46 5 17 8 102 7 189 l-2 159 -31 29 c-33 29
-75 36 -117 19z"/>
<path d="M1200 2763 c-60 -18 -90 -56 -90 -117 0 -29 10 -46 57 -96 82 -89
123 -106 183 -75 34 18 48 39 55 88 5 29 0 41 -31 78 -83 100 -132 134 -174
122z"/>
<path d="M3022 2758 c-40 -11 -222 -183 -258 -243 -20 -36 -22 -46 -13 -78 14
-52 59 -80 119 -74 41 5 52 13 162 125 115 117 118 121 118 165 0 76 -58 124
-128 105z"/>
<path d="M2005 2413 c-118 -27 -243 -89 -333 -167 l-53 -45 -80 29 c-111 41
-118 42 -264 46 -114 2 -141 -1 -215 -22 -104 -30 -136 -45 -223 -100 -137
-89 -247 -228 -305 -387 -16 -43 -35 -84 -43 -91 -8 -7 -42 -23 -76 -36 -292
-106 -465 -429 -396 -738 52 -229 205 -400 428 -479 l80 -28 805 -2 c877 -3
874 -3 1003 54 34 15 64 30 67 33 3 3 21 16 40 27 102 62 232 242 255 353 2 8
8 34 13 58 16 68 7 217 -18 308 l-22 80 36 57 c78 121 108 231 107 382 -1 122
-18 194 -73 305 -74 149 -232 284 -398 341 -52 18 -90 23 -190 24 -69 1 -134
0 -145 -2z m275 -228 c196 -70 326 -258 319 -465 -2 -61 -30 -163 -54 -197
l-16 -22 -57 43 c-108 82 -209 121 -341 131 -41 4 -81 10 -89 14 -7 4 -28 43
-46 87 -41 100 -72 152 -137 233 l-52 65 34 29 c46 39 123 78 184 93 64 15
197 10 255 -11z m-895 -132 c84 -19 212 -84 266 -135 107 -101 148 -193 183
-412 3 -16 7 -30 9 -33 2 -2 74 -5 158 -8 165 -4 226 -17 305 -68 176 -112
244 -354 153 -544 -57 -119 -185 -218 -310 -241 -26 -5 -392 -8 -815 -7 -767
1 -769 1 -825 23 -189 75 -303 246 -293 440 11 193 162 358 360 392 98 17 104
20 113 43 5 12 12 45 15 72 9 65 33 138 66 198 74 135 241 261 375 284 17 3
32 7 35 10 9 9 146 0 205 -14z"/>
<path d="M3109 1833 c-65 -27 -75 -133 -16 -177 25 -19 43 -21 180 -22 216 -1
239 7 253 84 9 45 -4 80 -39 106 -25 18 -42 20 -188 21 -107 0 -170 -3 -190
-12z"/>
<path d="M2938 1012 c-39 -5 -78 -55 -78 -100 0 -57 62 -139 135 -179 64 -35
136 -6 153 61 13 50 2 76 -62 143 -62 64 -96 82 -148 75z"/>
</g>
</svg>
